<svg aria-hidden="true" style="position: absolute; width: 0; height: 0; overflow: hidden;" version="1.1" xmlns="http://www.w3.org/2000/svg" xmlns:xlink="http://www.w3.org/1999/xlink">
<defs>
<symbol id="icon-right-quote-alt" viewBox="0 0 32 32">
<path d="M0 4v24l12-12v-12zM20 4v24l12-12v-12z"></path>
</symbol>
<symbol id="icon-left-quote-alt" viewBox="0 0 32 32">
<path d="M32 28v-24l-12 12v12zM12 28v-24l-12 12v12z"></path>
</symbol>
<symbol id="icon-phone" viewBox="0 0 32 32">
<path d="M22 20c-2 2-2 4-4 4s-4-2-6-4-4-4-4-6 2-2 4-4-4-8-6-8-6 6-6 6c0 4 4.109 12.109 8 16s12 8 16 8c0 0 6-4 6-6s-6-8-8-6z"></path>
</symbol>
<symbol id="icon-envelop" viewBox="0 0 32 32">
<path d="M29 4h-26c-1.65 0-3 1.35-3 3v20c0 1.65 1.35 3 3 3h26c1.65 0 3-1.35 3-3v-20c0-1.65-1.35-3-3-3zM12.461 17.199l-8.461 6.59v-15.676l8.461 9.086zM5.512 8h20.976l-10.488 7.875-10.488-7.875zM12.79 17.553l3.21 3.447 3.21-3.447 6.58 8.447h-19.579l6.58-8.447zM19.539 17.199l8.461-9.086v15.676l-8.461-6.59z"></path>
</symbol>
<symbol id="icon-location" viewBox="0 0 32 32">
<path d="M16 0c-5.523 0-10 4.477-10 10 0 10 10 22 10 22s10-12 10-22c0-5.523-4.477-10-10-10zM16 16c-3.314 0-6-2.686-6-6s2.686-6 6-6 6 2.686 6 6-2.686 6-6 6z"></path>
</symbol>
<symbol id="icon-eye" viewBox="0 0 32 32">
<path d="M16 6c-6.979 0-13.028 4.064-16 10 2.972 5.936 9.021 10 16 10s13.027-4.064 16-10c-2.972-5.936-9.021-10-16-10zM23.889 11.303c1.88 1.199 3.473 2.805 4.67 4.697-1.197 1.891-2.79 3.498-4.67 4.697-2.362 1.507-5.090 2.303-7.889 2.303s-5.527-0.796-7.889-2.303c-1.88-1.199-3.473-2.805-4.67-4.697 1.197-1.891 2.79-3.498 4.67-4.697 0.122-0.078 0.246-0.154 0.371-0.228-0.311 0.854-0.482 1.776-0.482 2.737 0 4.418 3.582 8 8 8s8-3.582 8-8c0-0.962-0.17-1.883-0.482-2.737 0.124 0.074 0.248 0.15 0.371 0.228v0zM16 13c0 1.657-1.343 3-3 3s-3-1.343-3-3 1.343-3 3-3 3 1.343 3 3z"></path>
</symbol>
<symbol id="icon-facebook" viewBox="0 0 32 32">
<path d="M19 6h5v-6h-5c-3.86 0-7 3.14-7 7v3h-4v6h4v16h6v-16h5l1-6h-6v-3c0-0.542 0.458-1 1-1z"></path>
</symbol>
<symbol id="icon-whatsapp" viewBox="0 0 32 32">
<path d="M27.281 4.65c-2.994-3-6.975-4.65-11.219-4.65-8.738 0-15.85 7.112-15.85 15.856 0 2.794 0.731 5.525 2.119 7.925l-2.25 8.219 8.406-2.206c2.319 1.262 4.925 1.931 7.575 1.931h0.006c0 0 0 0 0 0 8.738 0 15.856-7.113 15.856-15.856 0-4.238-1.65-8.219-4.644-11.219zM16.069 29.050v0c-2.369 0-4.688-0.637-6.713-1.837l-0.481-0.288-4.987 1.306 1.331-4.863-0.313-0.5c-1.325-2.094-2.019-4.519-2.019-7.012 0-7.269 5.912-13.181 13.188-13.181 3.519 0 6.831 1.375 9.319 3.862 2.488 2.494 3.856 5.8 3.856 9.325-0.006 7.275-5.919 13.188-13.181 13.188zM23.294 19.175c-0.394-0.2-2.344-1.156-2.706-1.288s-0.625-0.2-0.894 0.2c-0.262 0.394-1.025 1.288-1.256 1.556-0.231 0.262-0.462 0.3-0.856 0.1s-1.675-0.619-3.188-1.969c-1.175-1.050-1.975-2.35-2.206-2.744s-0.025-0.613 0.175-0.806c0.181-0.175 0.394-0.463 0.594-0.694s0.262-0.394 0.394-0.662c0.131-0.262 0.069-0.494-0.031-0.694s-0.894-2.15-1.219-2.944c-0.319-0.775-0.65-0.669-0.894-0.681-0.231-0.012-0.494-0.012-0.756-0.012s-0.694 0.1-1.056 0.494c-0.363 0.394-1.387 1.356-1.387 3.306s1.419 3.831 1.619 4.1c0.2 0.262 2.794 4.269 6.769 5.981 0.944 0.406 1.681 0.65 2.256 0.837 0.95 0.3 1.813 0.256 2.494 0.156 0.762-0.113 2.344-0.956 2.675-1.881s0.331-1.719 0.231-1.881c-0.094-0.175-0.356-0.275-0.756-0.475z"></path>
</symbol>
<symbol id="icon-target" viewBox="0 0 42 32">
<path d="M41.779 13.090c-0.225-0.189-0.562-0.159-0.752 0.068l-2.367 2.84c-0.051-0.016-0.103-0.032-0.16 0.002h-1.391l1.77-2.158c0.189-0.227 0.158-0.563-0.068-0.752s-0.563-0.159-0.752 0.068l-2.34 2.842h-1.579l1.77-2.158c0.189-0.227 0.158-0.563-0.068-0.752s-0.562-0.159-0.752 0.068l-2.34 2.842h-0.752c-0.019-8.841-7.187-16-15.998-16-8.822 0-16 7.178-16 16s7.178 16 16 16c8.473 0 15.41-6.626 15.948-15h0.803l2.34 2.842c0.105 0.127 0.258 0.192 0.41 0.192 0.121 0 0.242-0.040 0.342-0.124 0.227-0.188 0.258-0.525 0.068-0.752l-1.771-2.158h1.579l2.34 2.842c0.105 0.127 0.258 0.192 0.41 0.192 0.121 0 0.242-0.040 0.342-0.124 0.227-0.188 0.258-0.525 0.068-0.752l-1.77-2.158h1.391c0.057 0.034 0.109 0.018 0.161 0.002l2.367 2.84c0.105 0.127 0.258 0.192 0.41 0.192 0.121 0 0.242-0.040 0.342-0.124 0.227-0.188 0.258-0.525 0.068-0.752l-2.215-2.658 2.215-2.658c0.189-0.227 0.158-0.564-0.069-0.752zM16 31c-8.271 0-15-6.729-15-15s6.729-15 15-15c8.26 0 14.979 6.71 14.998 15h-3c-0.018-6.635-5.392-12-11.998-12-6.617 0-12 5.383-12 12s5.383 12 12 12c6.268 0 11.421-4.832 11.948-11h3c-0.535 7.823-7.026 14-14.948 14zM23.998 16c-0.018-4.429-3.598-8-7.998-8-4.411 0-8 3.589-8 8s3.589 8 8 8c4.060 0 7.416-3.043 7.925-7h3.022c-0.523 5.616-5.231 10-10.947 10-6.065 0-11-4.935-11-11s4.935-11 11-11c6.054 0 10.98 4.916 10.998 11h-3zM19.997 16c-0.019-2.224-1.802-4-3.997-4-2.206 0-4 1.794-4 4s1.794 4 4 4c1.846 0 3.388-1.263 3.847-3h3.068c-0.503 3.404-3.408 6-6.915 6-3.859 0-7-3.141-7-7s3.141-7 7-7c3.848 0 6.98 3.122 6.998 7h-3.001zM16.5 17h2.305c-0.423 1.178-1.516 2-2.805 2-1.654 0-3-1.346-3-3s1.346-3 3-3c1.643 0 2.978 1.328 2.997 3h-2.497c-0.295-0.034-0.534 0.205-0.534 0.5s0.239 0.534 0.534 0.5z"></path>
</symbol>
<symbol id="icon-target-arrow" viewBox="0 0 32 32">
<path d="M9 23.771l-1 1v3.229h-1v-2.229l-1.293 1.293-0.707-0.707 1.357-1.357h-2.357v-1h3.357l1-1h-2.357v-1h3.357l5.322-5.322-0.678-0.678 3-1-1 3-0.614-0.614-5.386 5.386v3.229h-1v-2.229zM7.779 21c-1.125-1.726-1.779-3.786-1.779-6 0-6.075 4.925-11 11-11s11 4.925 11 11c0 6.075-4.925 11-11 11-2.214 0-4.274-0.654-6-1.779v-1.072l2.242-2.242c1.086 0.692 2.375 1.093 3.758 1.093 3.866 0 7-3.134 7-7s-3.134-7-7-7c-3.866 0-7 3.134-7 7 0 1.397 0.409 2.699 1.115 3.792l-2.208 2.208h-1.128zM15.497 18.652l-1.527 1.527c0.889 0.521 1.925 0.82 3.030 0.82 3.314 0 6-2.686 6-6s-2.686-6-6-6c-3.314 0-6 2.686-6 6 0 1.12 0.307 2.168 0.841 3.065v0l1.526-1.526-0.951-0.944 1.588-0.454c-0.002-0.047-0.003-0.094-0.003-0.142 0-1.657 1.343-3 3-3s3 1.343 3 3c0 1.657-1.343 3-3 3-0.048 0-0.095-0.001-0.142-0.003l-0.447 1.563-0.915-0.907zM17.144 16.995c1.037-0.074 1.856-0.939 1.856-1.995 0-1.105-0.895-2-2-2-1.056 0-1.921 0.818-1.995 1.856l2.995-0.856-0.856 2.995z"></path>
</symbol>
<symbol id="icon-key" viewBox="0 0 20 20">
<path d="M12.26 11.74l-2.26 2.26h-2v2h-2v2l-2 2h-4v-4l8.26-8.26c-0.164-0.521-0.258-1.12-0.258-1.742 0-3.314 2.686-6 6-6s6 2.686 6 6c0 3.314-2.686 6-6 6-0.621 0-1.221-0.094-1.784-0.27l0.043 0.011zM17.12 7.12c0.542-0.543 0.877-1.292 0.877-2.12 0-1.656-1.342-2.998-2.997-3h-0c-0.828 0.001-1.578 0.337-2.12 0.88l-0 0 4.24 4.24z"></path>
</symbol>
</defs>
</svg>
